<svg id="Capa_1" enable-background="new 0 0 512 512" height="512" viewBox="0 0 512 512" width="512" xmlns="http://www.w3.org/2000/svg" xmlns:xlink="http://www.w3.org/1999/xlink"><linearGradient id="SVGID_1_" gradientUnits="userSpaceOnUse" x1="256" x2="256" y1="512" y2="0"><stop offset="0" stop-color="#ffc2cc"/><stop offset="1" stop-color="#fff2f4"/></linearGradient><linearGradient id="SVGID_2_" gradientUnits="userSpaceOnUse" x1="256" x2="256" y1="407" y2="105"><stop offset="0" stop-color="#ffa68d"/><stop offset="1" stop-color="#fd3a84"/></linearGradient><g><g><circle cx="256" cy="256" fill="url(#SVGID_1_)" r="256"/></g><g><g><path d="m229.353 309.294c0 14.694 11.953 26.647 26.647 26.647s26.647-11.953 26.647-26.647-11.953-26.647-26.647-26.647-26.647 11.953-26.647 26.647zm-17.765 71.059v17.765c0 4.91 3.973 8.882 8.882 8.882h71.059c4.91 0 8.882-3.973 8.882-8.882v-17.765c0-24.487-19.925-44.412-44.412-44.412s-44.411 19.925-44.411 44.412zm-88.823-71.059c0 14.694 11.953 26.647 26.647 26.647s26.647-11.953 26.647-26.647-11.953-26.647-26.647-26.647-26.647 11.953-26.647 26.647zm-17.765 71.059v17.765c0 4.91 3.973 8.882 8.882 8.882h71.059c4.91 0 8.882-3.973 8.882-8.882v-17.765c0-24.487-19.925-44.412-44.412-44.412s-44.411 19.925-44.411 44.412zm284.235-71.059c0-14.694-11.953-26.647-26.647-26.647s-26.647 11.953-26.647 26.647 11.953 26.647 26.647 26.647 26.647-11.953 26.647-26.647zm-26.647 26.647c-24.487 0-44.412 19.925-44.412 44.412v17.765c0 4.91 3.973 8.882 8.882 8.882h71.059c4.91 0 8.882-3.973 8.882-8.882v-17.765c.001-24.487-19.924-44.412-44.411-44.412zm-115.47-181.038v24.548l24.548-12.274zm124.353 118.862v-159.883c0-4.91-3.973-8.882-8.882-8.882h-213.177c-4.91 0-8.882 3.973-8.882 8.882v159.882c0 4.91 3.973 8.882 8.882 8.882h106.588 106.588c4.91.001 8.883-3.972 8.883-8.881zm-142.118-133.236c0-3.079 1.596-5.933 4.216-7.555s5.89-1.752 8.639-.39l53.294 26.647c3.01 1.509 4.91 4.58 4.91 7.946s-1.9 6.436-4.91 7.946l-53.294 26.647c-2.804 1.393-6.07 1.208-8.639-.39-2.62-1.622-4.216-4.476-4.216-7.555zm97.706 106.589h-142.118c-4.91 0-8.882-3.973-8.882-8.882 0-4.91 3.973-8.882 8.882-8.882h8.882v-8.882c0-4.91 3.973-8.882 8.882-8.882 4.91 0 8.882 3.973 8.882 8.882v8.882h115.471c4.91 0 8.882 3.973 8.882 8.882.001 4.909-3.972 8.882-8.881 8.882z" fill="url(#SVGID_2_)"/></g></g></g></svg>